<?xml version="1.0" standalone="no"?>
<!DOCTYPE svg PUBLIC "-//W3C//DTD SVG 20010904//EN"
 "http://www.w3.org/TR/2001/REC-SVG-20010904/DTD/svg10.dtd">
<svg version="1.0" xmlns="http://www.w3.org/2000/svg"
 width="2000.000000pt" height="2000.000000pt" viewBox="0 0 2000.000000 2000.000000"
 preserveAspectRatio="xMidYMid meet">

<g transform="translate(0.000000,2000.000000) scale(0.100000,-0.100000)"
fill="#000000" stroke="none">
<path d="M11739 18035 c-89 -18 -191 -62 -281 -120 -91 -60 -246 -216 -315
-316 -126 -183 -557 -1085 -895 -1869 -506 -1175 -1076 -2681 -1480 -3910
-526 -1600 -726 -2195 -982 -2915 -571 -1606 -1048 -2871 -1671 -4435 -295
-741 -330 -838 -377 -1065 -30 -141 -32 -163 -32 -360 0 -185 3 -220 22 -290
53 -194 155 -332 317 -430 437 -263 902 -404 1214 -367 315 37 508 187 626
484 42 107 59 192 90 468 34 294 111 838 175 1226 306 1876 729 3526 1222
4769 223 564 568 1004 964 1230 l32 18 308 -97 c170 -54 363 -115 429 -136
201 -65 291 -72 375 -30 51 26 75 56 109 135 22 52 26 72 17 77 -7 4 -95 40
-197 81 -101 41 -292 119 -424 172 -132 54 -465 189 -740 300 -916 370 -816
327 -810 355 13 51 132 325 141 323 8 -2 355 -142 1159 -468 187 -76 473 -192
635 -257 162 -66 309 -120 327 -121 122 -4 156 160 45 217 -15 8 -189 79 -387
159 -565 228 -1302 527 -1511 612 l-191 78 64 161 c36 89 68 165 73 170 5 5
46 -7 97 -27 95 -38 510 -207 818 -332 355 -144 559 -227 820 -332 143 -58
286 -116 317 -129 67 -28 88 -29 133 -8 66 31 82 122 32 176 -14 15 -96 54
-212 101 -105 42 -361 145 -570 230 -209 85 -594 241 -855 346 -261 106 -478
196 -482 199 -5 5 113 321 127 340 3 3 423 -166 1445 -581 609 -247 661 -267
696 -267 28 0 44 8 71 35 33 33 35 39 31 85 -6 62 -22 80 -101 113 -53 23
-1264 513 -1859 754 -104 41 -188 81 -188 87 0 10 127 326 133 332 1 1 124
-48 272 -108 149 -60 326 -132 395 -160 69 -28 161 -65 205 -83 559 -231 1236
-498 1261 -498 43 1 71 18 94 56 26 42 25 76 -3 118 -20 30 -49 45 -277 137
-140 57 -309 125 -375 152 -66 27 -360 146 -654 265 -669 271 -823 334 -828
338 -3 4 125 327 134 336 2 3 50 -14 106 -37 215 -87 1071 -434 1272 -515 622
-252 737 -297 755 -297 29 0 76 26 94 52 9 12 16 42 16 65 0 78 -11 85 -455
264 -384 155 -558 225 -1040 420 -121 50 -318 129 -437 177 -120 48 -218 92
-218 97 0 10 127 326 134 332 2 2 136 -50 297 -116 343 -139 512 -208 929
-376 168 -68 433 -176 590 -239 157 -64 298 -116 315 -116 98 0 150 123 81
191 -13 14 -113 60 -227 106 -211 85 -1039 420 -1469 595 -135 54 -285 115
-335 135 -49 20 -91 37 -92 38 -2 1 24 69 58 151 33 82 65 159 69 171 9 22 11
21 182 -48 322 -131 542 -220 898 -364 195 -79 495 -201 665 -270 379 -155
384 -157 429 -144 50 14 76 51 76 110 0 73 -19 87 -230 173 -312 125 -646 260
-845 341 -307 125 -821 333 -945 382 -63 25 -119 50 -124 54 -9 8 121 339 134
339 4 0 128 -49 276 -109 321 -130 1043 -422 1274 -516 399 -162 559 -225 575
-225 34 0 84 30 99 59 22 42 20 82 -6 121 -25 36 34 10 -848 367 -184 74 -384
155 -445 180 -60 25 -258 105 -440 178 -181 74 -347 141 -367 149 l-37 16 66
162 c36 90 68 166 72 170 4 5 124 -40 266 -98 143 -58 420 -170 615 -249 195
-79 551 -222 790 -319 239 -97 447 -176 463 -176 54 0 91 30 110 92 9 26 -11
82 -35 105 -13 11 -124 60 -248 110 -631 255 -1865 755 -1868 758 -8 8 134
345 143 341 24 -11 522 -213 760 -309 143 -58 465 -188 715 -290 665 -269 638
-259 663 -252 65 18 97 56 97 114 0 70 -22 89 -170 149 -41 16 -205 82 -365
147 -159 65 -420 170 -580 235 -722 292 -963 390 -1001 407 l-41 18 64 160
c36 88 68 164 73 168 7 8 194 -66 1175 -463 132 -54 371 -150 530 -215 160
-64 316 -128 347 -141 67 -28 88 -29 134 -8 46 22 71 87 54 139 -6 19 -22 42
-33 50 -12 8 -182 79 -377 158 -459 186 -1057 429 -1430 579 -162 66 -298 123
-302 127 -7 6 115 326 131 343 3 3 53 -13 111 -36 320 -130 1207 -490 1580
-641 146 -59 313 -127 372 -151 59 -24 114 -44 122 -44 8 0 25 28 41 69 50
126 18 226 -95 307 -58 41 -2029 1027 -2095 1047 -122 38 -230 45 -346 22z"/>
</g>
</svg>
