<svg width="14.000298" height="13.980469" viewBox="0 0 14.0003 13.9805" fill="none" xmlns="http://www.w3.org/2000/svg" xmlns:xlink="http://www.w3.org/1999/xlink">
	<desc>
			Created with Pixso.
	</desc>
	<defs/>
	<path id="Vector" d="M3.17 13.46C2.44 13.38 1.76 13.05 1.25 12.53L0.8 12.09C0.61 11.89 0.5 11.62 0.5 11.34C0.5 11.05 0.61 10.78 0.8 10.58L2.71 8.7C2.91 8.5 3.18 8.39 3.46 8.39C3.74 8.39 4.01 8.5 4.2 8.7C4.41 8.89 4.68 9 4.96 9C5.24 9 5.51 8.89 5.71 8.7L8.71 5.7C8.81 5.6 8.88 5.49 8.94 5.36C8.99 5.23 9.02 5.09 9.02 4.95C9.02 4.81 8.99 4.67 8.94 4.54C8.88 4.41 8.81 4.29 8.71 4.19C8.51 4 8.4 3.73 8.4 3.45C8.4 3.17 8.51 2.9 8.71 2.7L10.6 0.8C10.8 0.61 11.07 0.5 11.36 0.5C11.64 0.5 11.91 0.61 12.11 0.8L12.55 1.25C13.07 1.76 13.4 2.44 13.48 3.17C13.56 3.9 13.38 4.63 12.99 5.24C10.92 8.29 8.29 10.91 5.24 12.97C4.63 13.36 3.9 13.54 3.17 13.46Z" stroke="#000000" stroke-opacity="1.000000" stroke-width="1.000000" stroke-linejoin="round"/>
</svg>
