<svg width="51.002930" height="51.001831" viewBox="0 0 51.0029 51.0018" fill="none" xmlns="http://www.w3.org/2000/svg" xmlns:xlink="http://www.w3.org/1999/xlink">
	<desc>
			Created with Pixso.
	</desc>
	<defs>
		<clipPath id="clip59_10">
			<rect id="phone--android-phone-mobile-device-smartphone-iphone" rx="0.000000" width="32.000000" height="32.000000" transform="translate(8.500000 8.500000)" fill="white" fill-opacity="0"/>
		</clipPath>
	</defs>
	<g style="mix-blend-mode:normal">
		<g clip-path="url(#clip59_10)">
			<path id="Vector" d="M15.48 39.75C13.76 39.56 12.17 38.79 10.96 37.56L9.9 36.52C9.43 36.05 9.17 35.41 9.17 34.75C9.17 34.09 9.43 33.45 9.9 32.97L14.39 28.53C14.86 28.06 15.49 27.81 16.15 27.81C16.81 27.81 17.45 28.06 17.92 28.53C18.39 28.99 19.03 29.25 19.69 29.25C20.36 29.25 21 28.99 21.47 28.53L28.53 21.47C28.76 21.24 28.95 20.96 29.08 20.66C29.2 20.35 29.27 20.03 29.27 19.69C29.27 19.36 29.2 19.04 29.08 18.73C28.95 18.43 28.76 18.15 28.53 17.92C28.06 17.45 27.81 16.81 27.81 16.15C27.81 15.49 28.06 14.86 28.53 14.39L33 9.92C33.47 9.46 34.11 9.2 34.77 9.2C35.44 9.2 36.07 9.46 36.55 9.92L37.58 10.98C38.81 12.19 39.58 13.79 39.77 15.5C39.96 17.21 39.55 18.94 38.62 20.39C33.75 27.56 27.55 33.74 20.36 38.59C18.92 39.53 17.19 39.94 15.48 39.75Z" stroke="#C5654B" stroke-opacity="1.000000" stroke-width="1.000000" stroke-linejoin="round"/>
		</g>
	</g>
	<path id="Ellipse 11" d="M36 48.73C41.28 46.34 45.78 42.16 48.48 36.54C50.98 31.32 51.75 25.23 50.2 19.19C48.77 13.57 45.43 8.42 40.36 4.78C35.66 1.4 29.79 -0.4 23.57 0.07C17.8 0.51 12.14 2.9 7.68 7.26C3.54 11.3 0.74 16.77 0.13 22.98C-0.45 28.74 0.92 34.72 4.44 39.87C7.7 44.66 12.6 48.36 18.61 50.04C24.18 51.61 30.32 51.3 36 48.73ZM49.02 19.49C50.39 24.83 49.95 30.66 47.38 36.02C44.99 40.99 40.91 45.18 35.5 47.62C30.47 49.89 24.65 50.48 18.94 48.87C13.63 47.38 8.79 44.09 5.44 39.19C2.33 34.63 0.74 29 1.34 23.09C1.88 17.61 4.28 12.27 8.53 8.13C12.47 4.27 17.74 1.73 23.66 1.29C29.16 0.87 34.83 2.3 39.65 5.77C44.14 8.99 47.55 13.73 49.02 19.49Z" fill="#C5654B" fill-opacity="1.000000" fill-rule="evenodd"/>
</svg>
