<?xml version="1.0" standalone="no"?>
<!DOCTYPE svg PUBLIC "-//W3C//DTD SVG 20010904//EN"
 "http://www.w3.org/TR/2001/REC-SVG-20010904/DTD/svg10.dtd">
<svg version="1.0" xmlns="http://www.w3.org/2000/svg"
 width="720.000000pt" height="360.000000pt" viewBox="0 0 720.000000 360.000000"
 preserveAspectRatio="xMidYMid meet">

<g transform="translate(0.000000,360.000000) scale(0.100000,-0.100000)"
fill="#000000" stroke="none">
<path d="M1564 2830 c-27 -4 -72 -17 -100 -29 -115 -51 -170 -112 -235 -262
-42 -97 -44 -133 -11 -161 9 -8 134 -58 277 -111 143 -53 540 -199 882 -326
l622 -230 98 25 c123 31 296 42 413 25 105 -16 176 -37 480 -146 135 -49 263
-90 285 -92 39 -4 573 52 582 61 7 7 -9 14 -482 211 -247 102 -486 202 -530
220 -417 176 -1243 515 -1370 563 -297 112 -721 244 -815 254 -25 3 -68 2 -96
-2z m436 -630 c8 -5 11 -10 5 -10 -5 0 -17 5 -25 10 -8 5 -10 10 -5 10 6 0 17
-5 25 -10z m80 -30 c8 -5 11 -10 5 -10 -5 0 -17 5 -25 10 -8 5 -10 10 -5 10 6
0 17 -5 25 -10z m110 -40 c18 -12 2 -12 -25 0 -13 6 -15 9 -5 9 8 0 22 -4 30
-9z"/>
<path d="M5090 1589 c-337 -48 -1155 -131 -1615 -164 -510 -36 -643 -40 -1265
-40 -665 0 -814 6 -1150 48 -215 27 -275 26 -344 -6 -75 -35 -121 -80 -158
-155 -27 -55 -32 -77 -32 -137 0 -127 71 -237 189 -291 58 -27 230 -47 570
-65 270 -15 1114 -6 1389 15 688 53 1269 127 1961 251 298 54 679 132 716 148
19 8 49 29 66 47 128 132 44 353 -139 365 -29 2 -114 -5 -188 -16z m23 -120
c32 -15 57 -60 57 -104 0 -54 -53 -105 -109 -105 -59 0 -101 40 -108 103 -5
43 -3 49 30 82 38 38 82 46 130 24z"/>
<path d="M5025 1461 c-79 -33 -79 -144 0 -177 45 -18 78 -10 110 28 65 77 -16
187 -110 149z"/>
<path d="M5487 1311 c-16 -46 -67 -103 -127 -142 -24 -16 -23 -16 49 -32 202
-46 349 -61 611 -61 263 -1 384 11 560 52 63 15 77 22 88 45 10 20 10 32 2 47
-17 32 -45 37 -123 23 -209 -36 -545 -4 -909 88 -64 16 -121 29 -125 29 -5 0
-16 -22 -26 -49z"/>
</g>
</svg>
